{
  "asset": {
    "version": "2.0",
    "generator": "THREE.GLTFExporter r180"
  },
  "scenes": [
    {
      "name": "AuxScene",
      "nodes": [
        0
      ]
    }
  ],
  "scene": 0,
  "nodes": [
    {
      "matrix": [
        1,
        0,
        0,
        0,
        0,
        1,
        0,
        0,
        0,
        0,
        1,
        0,
        -7.102245330810547,
        -60.249999999999986,
        7.102245330810547,
        1
      ],
      "mesh": 0
    }
  ],
  "bufferViews": [
    {
      "buffer": 0,
      "byteOffset": 0,
      "byteLength": 137088,
      "target": 34962,
      "byteStride": 12
    },
    {
      "buffer": 0,
      "byteOffset": 137088,
      "byteLength": 137088,
      "target": 34962,
      "byteStride": 12
    }
  ],
  "buffers": [
    {
      "byteLength": 274176,
      "uri": "data:application/octet-stream;base64,"
    }
  ],
  "accessors": [
    {
      "bufferView": 0,
      "componentType": 5126,
      "count": 11424,
      "max": [
        49.46234130859375,
        120.5,
        35.257850646972656
      ],
      "min": [
        -35.257850646972656,
        -2.842170943040401e-14,
        -49.46234130859375
      ],
      "type": "VEC3"
    },
    {
      "bufferView": 1,
      "componentType": 5126,
      "count": 11424,
      "max": [
        0.9997838735580444,
        1,
        0.9991921782493591
      ],
      "min": [
        -0.9991921782493591,
        -1,
        -0.999731183052063
      ],
      "type": "VEC3"
    }
  ],
  "materials": [
    {
      "pbrMetallicRoughness": {
        "baseColorFactor": [
          0.24620132669705552,
          0.24620132669705552,
          0.24620132669705552,
          1
        ],
        "metallicFactor": 0,
        "roughnessFactor": 1
      }
    }
  ],
  "meshes": [
    {
      "primitives": [
        {
          "mode": 4,
          "attributes": {
            "POSITION": 0,
            "NORMAL": 1
          },
          "extras": {
            "groupNames": [
              "CATIA STL"
            ]
          },
          "material": 0
        }
      ]
    }
  ]
}